<svg width="144" height="37" viewBox="0 0 144 37" fill="none" xmlns="http://www.w3.org/2000/svg">
<g clip-path="url(#clip0_771_6867)">
<path d="M107.562 8.68457C110.691 8.68457 113.116 10.5406 113.116 14.7368V24.6626H109.502V23.3714C108.563 24.3721 107.139 24.8078 105.606 24.8078C102.555 24.8078 99.2227 23.0486 99.2227 20.4341V20.2888C99.3635 17.6742 101.616 16.4153 104.01 15.6407C103.212 14.8175 102.868 13.8492 102.868 12.8808C102.868 10.8473 104.495 8.91052 106.936 8.73299C107.139 8.73299 107.358 8.70071 107.562 8.70071V8.68457ZM109.518 15.1565C107.296 16.5122 103.134 16.2378 102.884 20.0628V20.3534C102.884 22.3224 104.417 23.4683 106.216 23.4683H106.529C108.156 23.3553 109.518 21.935 109.518 20.5632V15.1565ZM106.842 10.2501C105.528 10.2501 104.37 11.396 104.37 12.8324C104.37 13.5909 104.714 14.4141 105.512 15.1887C107.624 14.6239 109.471 14.2527 109.471 13.3973C109.33 12.0738 108.595 10.3469 106.999 10.2501H106.827H106.842Z" fill="#005666"/>
<path d="M116.418 0.373047H120.032V24.6951H116.418V0.373047Z" fill="#005666"/>
<path d="M123.334 0.373047H126.948V24.6951H123.334V0.373047Z" fill="#005666"/>
<path d="M143.625 8.73345C142.89 10.7509 142.17 12.7683 141.435 14.7857C140.105 18.4978 138.775 22.2099 137.43 25.9219C135.787 30.5055 132.063 34.1691 127.041 33.9755C124.412 33.8625 121.94 32.7327 119.468 31.8128C116.996 30.8928 114.274 30.1666 111.739 30.9413C110.049 31.4577 108.61 32.6036 107.186 33.6688C105.762 34.734 104.229 35.7992 102.492 36.0897C100.74 36.3964 98.7218 35.7347 97.9238 34.1046C99.8952 34.153 101.679 32.9748 103.181 31.6514C104.683 30.3441 106.06 28.8109 107.828 27.9071C110.722 26.4222 114.18 26.8419 117.278 27.7779C120.36 28.714 123.348 30.1343 126.54 30.6023C129.998 31.1188 134.473 30.2957 135.802 26.5675L129.998 8.70117H133.925L137.868 20.838L139.401 16.5449C139.933 15.044 140.105 13.5107 140.105 12.1873C140.105 10.1537 139.714 8.70117 139.714 8.70117H143.641L143.625 8.73345Z" fill="#005666"/>
<path d="M13.4686 14.1399C12.7176 10.8475 10.6211 8.8623 7.74224 8.8623C6.38105 8.8623 4.75388 9.52402 3.90901 10.3633V8.99142H0.373047V32.7325H3.89336V23.2425C4.40967 23.8397 5.52053 24.6466 7.05382 24.6466C7.22593 24.6466 7.39803 24.6466 7.57013 24.6144C11.4034 24.227 13.672 19.9985 13.672 16.1412C13.672 15.4472 13.6094 14.7693 13.4686 14.1399ZM10.1673 18.0456C9.58845 20.3213 8.2742 22.1773 7.00688 22.7745C6.7409 22.9197 6.45928 22.952 6.22459 22.952C4.8634 22.952 3.87772 21.3058 3.87772 20.0146V16.3833C3.87772 13.2038 5.70828 10.3955 7.60143 10.3955C7.80482 10.3955 8.03951 10.4278 8.24291 10.5085C9.7762 11.0411 10.5116 12.8487 10.5116 15.1244C10.5116 16.0282 10.402 17.045 10.1361 18.0618L10.1673 18.0456Z" fill="#005666"/>
<path d="M22.4179 8.84619C18.4125 8.84619 15.1582 12.3807 15.1582 16.7222C15.1582 21.0637 18.4125 24.5982 22.4179 24.5982C26.4232 24.5982 29.6775 21.0637 29.6775 16.7222C29.6775 12.3807 26.4232 8.84619 22.4179 8.84619ZM24.0763 23.0166C23.8729 23.0811 23.6695 23.0811 23.4661 23.0811C21.6356 23.0811 19.6329 20.8378 18.8193 17.7229C18.5846 16.7706 18.4438 15.8346 18.4438 14.963C18.4438 12.6551 19.2887 10.8313 20.7438 10.4117C20.9472 10.3472 21.1506 10.3472 21.354 10.3472C23.1845 10.3472 25.1872 12.5905 26.0008 15.7054C26.2355 16.6577 26.3763 17.5615 26.3763 18.433C26.3763 20.7409 25.5001 22.597 24.0763 23.0166Z" fill="#005666"/>
<path d="M53.9613 8.97559V9.39521C53.9613 10.3636 53.8048 12.8006 52.2246 15.0601C52.1463 15.1731 52.0681 15.27 51.9899 15.3829L51.411 16.1253L50.8321 16.9L49.909 18.0943V8.99173H46.3887V24.4856H49.909V20.1763L50.8321 18.982L52.2246 17.1744L52.5375 16.7709L52.8191 16.3836L53.0382 16.1092L58.4986 8.97559H53.9613Z" fill="#005666"/>
<path d="M54.8844 24.453V24.0333C54.8844 23.0166 54.7123 20.402 52.913 18.0456L52.2402 17.1741L52.5531 16.7706L52.8348 16.3833L53.0538 16.1089L53.4606 16.6576L53.7422 17.045L59.4217 24.4691H54.8844V24.453Z" fill="#005666"/>
<path d="M67.5405 16.3026L70.1377 14.5918L70.2316 14.5273L72.2499 13.1716C72.422 13.0586 72.5628 12.9133 72.7349 12.7842C72.5784 12.5098 72.4376 12.2355 72.2342 11.9934C72.2342 11.9611 72.2029 11.9127 72.1716 11.8965C72.1091 11.8158 72.0778 11.7674 72.0152 11.7029C70.8887 10.218 69.2615 9.18512 67.384 8.92689C67.0711 8.86233 66.7425 8.84619 66.414 8.84619C65.8351 8.84619 65.2718 8.92689 64.7555 9.056C61.5481 9.86297 59.1543 12.994 59.1543 16.7061C59.1543 17.8197 59.3733 18.8849 59.7645 19.8533C59.9366 20.2729 60.14 20.6764 60.3747 21.0637C61.6733 23.1941 63.8793 24.5821 66.3983 24.5821C68.6983 24.5821 70.2941 23.7913 71.5458 22.7099C71.9526 22.3549 72.3437 21.9837 72.7036 21.564L71.2955 20.9346C71.1234 21.1283 70.9356 21.2897 70.7322 21.4349C70.5758 21.564 70.4193 21.6932 70.2472 21.7577C70.0594 21.8707 69.8561 21.9675 69.6683 22.0482C69.5744 22.1128 69.4649 22.1451 69.371 22.1612C69.2615 22.1935 69.1676 22.2258 69.0738 22.258H69.0581C68.886 22.3226 68.6983 22.3549 68.5418 22.371C68.3697 22.3872 68.1976 22.4033 68.0568 22.4033C67.165 22.371 66.2419 22.1451 65.397 21.6125C65.3813 21.6125 65.3657 21.6125 65.3344 21.5963C64.8963 21.2897 64.5365 20.9185 64.1923 20.515C64.1297 20.4827 64.114 20.4343 64.0827 20.3859C63.8324 20.0954 63.6134 19.7726 63.41 19.4336C63.3474 19.3368 63.3004 19.24 63.2379 19.1431L63.3161 19.0786L64.7242 18.1586L66.2106 17.1741L67.5248 16.2865M62.8311 17.7229C62.8311 17.7229 62.7998 17.5937 62.7998 17.5292C62.5807 16.6415 62.4556 15.8184 62.4556 14.9792C62.4556 12.881 63.1909 11.1541 64.3957 10.557C64.5052 10.4763 64.6147 10.444 64.7555 10.3956C64.9589 10.3633 65.131 10.3149 65.3344 10.3149C65.5847 10.3149 65.8194 10.3472 66.0385 10.4279C67.2119 10.7506 68.3541 11.8965 69.1833 13.5589L68.4323 14.0592L66.7738 15.1567L65.7881 15.8346L62.8467 17.7874C62.8467 17.7874 62.8311 17.7229 62.8311 17.7067V17.7229Z" fill="#005666"/>
<path d="M82.1072 20.4501C82.1072 22.5805 81.5909 23.3229 80.7461 23.3229C80.1046 23.3229 79.6665 22.7903 79.6665 21.7413V10.2984H83.8752V9.00728H79.6665V4.81104H76.1462V9.00728H73.4395V10.2984H76.1462V20.902C76.1462 22.9679 77.57 24.6141 80.5583 24.6141C83.3433 24.6141 85.6432 23.4198 85.6432 20.4501H82.1229H82.1072Z" fill="#005666"/>
<path d="M45.2614 20.5634C43.3214 24.2271 39.1439 25.8249 35.6862 24.1625C35.6236 24.1302 35.5454 24.098 35.4828 24.0495C32.7604 22.9359 30.8047 20.0631 30.8047 16.7061C30.8047 12.3646 34.059 8.83008 38.0644 8.83008C38.4555 8.83008 38.831 8.86236 39.2065 8.91078C41.4282 9.29812 43.3057 10.7668 44.3853 12.7842L44.0098 12.994L42.6486 13.7849H42.6329L41.3343 14.5434C41.2248 14.2691 41.1153 13.9785 40.9745 13.7203C40.6616 13.0909 40.333 12.5421 39.9419 12.0741C39.4568 11.4769 38.9249 11.0089 38.3616 10.7022C37.9235 10.4602 37.4698 10.331 37.0161 10.331C36.8127 10.331 36.6406 10.331 36.4372 10.3956C34.9821 10.8152 34.0903 12.6713 34.0903 14.9792C34.0903 15.8507 34.2311 16.7707 34.4658 17.7067C34.591 18.1425 34.7318 18.5944 34.9195 18.9979C34.9978 19.2239 35.1073 19.4014 35.2325 19.5951C35.295 19.7403 35.3733 19.8372 35.4359 19.9501C35.5141 20.0792 35.5923 20.1922 35.6862 20.3213C35.8739 20.5796 36.093 20.8217 36.3277 21.0315C36.3903 21.1122 36.4841 21.1929 36.5624 21.2574C36.5936 21.2736 36.6249 21.3058 36.6719 21.322C36.8909 21.5156 37.1256 21.677 37.4072 21.79C37.4698 21.8384 37.548 21.8707 37.6106 21.9191C37.6576 21.9353 37.7201 21.9676 37.7827 21.9837C37.9235 22.0321 38.0487 22.0644 38.1895 22.1289C38.3147 22.1612 38.4399 22.1935 38.565 22.2419C38.5963 22.2581 38.6276 22.2581 38.6745 22.2581C38.8154 22.2742 38.9405 22.3065 39.0813 22.3226C39.363 22.3388 39.6602 22.3388 39.9419 22.3065H39.9888C40.1765 22.3065 40.3799 22.2742 40.5677 22.1774C40.599 22.1774 40.6146 22.1612 40.6459 22.1451C40.7554 22.1128 40.8493 22.0644 40.9745 21.9998C41.0527 21.9514 41.1622 21.8707 41.2561 21.8223C41.9758 21.2897 42.6329 20.402 43.0554 19.2561L45.2771 20.5311L45.2614 20.5634Z" fill="#005666"/>
<path d="M91.7766 17.8679C93.1073 17.8679 94.1861 16.7551 94.1861 15.3824C94.1861 14.0098 93.1073 12.897 91.7766 12.897C90.4459 12.897 89.3672 14.0098 89.3672 15.3824C89.3672 16.7551 90.4459 17.8679 91.7766 17.8679Z" fill="#005666"/>
</g>
<defs>
<clipPath id="clip0_771_6867">
<rect width="143.253" height="35.8133" fill="white" transform="translate(0.373047 0.373535)"/>
</clipPath>
</defs>
</svg>
